<?xml version="1.0" encoding="UTF-8" standalone="no"?>
<!DOCTYPE svg PUBLIC "-//W3C//DTD SVG 1.1//EN"
 "http://www.w3.org/Graphics/SVG/1.1/DTD/svg11.dtd">
<!-- Generated by graphviz version 2.43.0 (0)
 -->
<!-- Title: protodot Pages: 1 -->
<svg width="665pt" height="179pt"
 viewBox="0.00 0.00 665.00 179.00" xmlns="http://www.w3.org/2000/svg" xmlns:xlink="http://www.w3.org/1999/xlink">
<g id="graph0" class="graph" transform="scale(1 1) rotate(0) translate(4 175)">
<title>protodot</title>
<!-- Node_Ja_100 -->
<g id="node1" class="node">
<title>Node_Ja_100</title>
<g id="a_node1"><a xlink:title=".VehicleData">
<polygon fill="#fffaf0" stroke="transparent" points="8,-105 8,-152 174,-152 174,-105 8,-105"/>
<polygon fill="#e31a1c" stroke="transparent" points="9,-135.5 9,-150.5 173,-150.5 173,-135.5 9,-135.5"/>
<text text-anchor="start" x="112" y="-141.5" font-family="Ubuntu" font-weight="bold" font-size="10.00">VehicleData</text>
<text text-anchor="start" x="11" y="-125.5" font-family="Ubuntu" font-size="10.00">[...]</text>
<text text-anchor="start" x="28" y="-125.5" font-family="Ubuntu" font-size="10.00">1</text>
<text text-anchor="start" x="39" y="-125.5" font-family="Ubuntu" font-size="10.00">category_one</text>
<polygon fill="#fb9a99" stroke="transparent" points="104,-120.5 104,-135.5 173,-135.5 173,-120.5 104,-120.5"/>
<text text-anchor="start" x="106" y="-126.5" font-family="Ubuntu" font-weight="bold" font-size="10.00">CategoryOne</text>
<text text-anchor="start" x="28" y="-110.5" font-family="Ubuntu" font-size="10.00">2</text>
<text text-anchor="start" x="39" y="-110.5" font-family="Ubuntu" font-size="10.00">category_two</text>
<polygon fill="#fb9a99" stroke="transparent" points="104,-105.5 104,-120.5 173,-120.5 173,-105.5 104,-105.5"/>
<text text-anchor="start" x="107" y="-111.5" font-family="Ubuntu" font-weight="bold" font-size="10.00">CategoryTwo</text>
<polygon fill="none" stroke="black" points="8,-105 8,-152 174,-152 174,-105 8,-105"/>
</a>
</g>
</g>
<!-- Node_Ja_103 -->
<g id="node2" class="node">
<title>Node_Ja_103</title>
<g id="a_node2"><a xlink:title=".VehicleData.CategoryOne">
<polygon fill="#fffaf0" stroke="transparent" points="231.5,-120 231.5,-167 398.5,-167 398.5,-120 231.5,-120"/>
<polygon fill="#e31a1c" stroke="transparent" points="233,-150.5 233,-165.5 398,-165.5 398,-150.5 233,-150.5"/>
<text text-anchor="start" x="331" y="-156.5" font-family="Ubuntu" font-weight="bold" font-size="10.00">CategoryOne</text>
<text text-anchor="start" x="239" y="-140.5" font-family="Ubuntu" font-size="10.00">1</text>
<text text-anchor="start" x="250" y="-140.5" font-family="Ubuntu" font-size="10.00">timestamp</text>
<polygon fill="#a6cee3" stroke="transparent" points="300,-135.5 300,-150.5 398,-150.5 398,-135.5 300,-135.5"/>
<text text-anchor="start" x="372" y="-141.5" font-family="Ubuntu" font-style="italic" font-size="10.00">int64</text>
<text text-anchor="start" x="239" y="-125.5" font-family="Ubuntu" font-size="10.00">2</text>
<text text-anchor="start" x="250" y="-125.5" font-family="Ubuntu" font-size="10.00">fields</text>
<polygon fill="#fb9a99" stroke="transparent" points="300,-120.5 300,-135.5 398,-135.5 398,-120.5 300,-120.5"/>
<text text-anchor="start" x="302" y="-126.5" font-family="Ubuntu" font-weight="bold" font-size="10.00">CategoryOneFields</text>
<polygon fill="none" stroke="black" points="231.5,-120 231.5,-167 398.5,-167 398.5,-120 231.5,-120"/>
</a>
</g>
</g>
<!-- Node_Ja_100&#45;&gt;Node_Ja_103 -->
<g id="edge2" class="edge">
<title>Node_Ja_100:e&#45;&gt;Node_Ja_103:header</title>
<g id="a_edge2"><a xlink:title="Ja_100 &#45;&#45;&gt; Ja_103">
<path fill="none" stroke="#000000" d="M174,-127.5C199.46,-127.5 202.4,-151.02 222.05,-157.09"/>
<polygon fill="#000000" stroke="#000000" points="221.61,-160.56 232,-158.5 222.59,-153.63 221.61,-160.56"/>
</a>
</g>
</g>
<!-- Node_Ja_104 -->
<g id="node3" class="node">
<title>Node_Ja_104</title>
<g id="a_node3"><a xlink:title=".VehicleData.CategoryTwo">
<polygon fill="#fffaf0" stroke="transparent" points="226,-43 226,-90 404,-90 404,-43 226,-43"/>
<polygon fill="#e31a1c" stroke="transparent" points="227,-73.5 227,-88.5 403,-88.5 403,-73.5 227,-73.5"/>
<text text-anchor="start" x="337" y="-79.5" font-family="Ubuntu" font-weight="bold" font-size="10.00">CategoryTwo</text>
<text text-anchor="start" x="229" y="-63.5" font-family="Ubuntu" font-size="10.00">[...]</text>
<text text-anchor="start" x="246" y="-63.5" font-family="Ubuntu" font-size="10.00">1</text>
<text text-anchor="start" x="257" y="-63.5" font-family="Ubuntu" font-size="10.00">timestamp</text>
<polygon fill="#a6cee3" stroke="transparent" points="307,-58.5 307,-73.5 403,-73.5 403,-58.5 307,-58.5"/>
<text text-anchor="start" x="377" y="-64.5" font-family="Ubuntu" font-style="italic" font-size="10.00">int64</text>
<text text-anchor="start" x="229" y="-48.5" font-family="Ubuntu" font-size="10.00">[...]</text>
<text text-anchor="start" x="246" y="-48.5" font-family="Ubuntu" font-size="10.00">2</text>
<text text-anchor="start" x="257" y="-48.5" font-family="Ubuntu" font-size="10.00">fields</text>
<polygon fill="#fb9a99" stroke="transparent" points="307,-43.5 307,-58.5 403,-58.5 403,-43.5 307,-43.5"/>
<text text-anchor="start" x="309" y="-49.5" font-family="Ubuntu" font-weight="bold" font-size="10.00">CategoryTwoFields</text>
<polygon fill="none" stroke="black" points="226,-43 226,-90 404,-90 404,-43 226,-43"/>
</a>
</g>
</g>
<!-- Node_Ja_100&#45;&gt;Node_Ja_104 -->
<g id="edge3" class="edge">
<title>Node_Ja_100:e&#45;&gt;Node_Ja_104:header</title>
<g id="a_edge3"><a xlink:title="Ja_100 &#45;&#45;&gt; Ja_104">
<path fill="none" stroke="#000000" d="M174,-112.5C196.91,-112.5 199,-90.02 215.73,-83.35"/>
<polygon fill="#000000" stroke="#000000" points="216.78,-86.71 226,-81.5 215.54,-79.82 216.78,-86.71"/>
</a>
</g>
</g>
<!-- Node_Ja_101 -->
<g id="node4" class="node">
<title>Node_Ja_101</title>
<g id="a_node4"><a xlink:title=".VehicleData.CategoryOneFields">
<polygon fill="#fffaf0" stroke="transparent" points="456,-77.5 456,-139.5 649,-139.5 649,-77.5 456,-77.5"/>
<polygon fill="#e31a1c" stroke="transparent" points="457.5,-123.5 457.5,-138.5 648.5,-138.5 648.5,-123.5 457.5,-123.5"/>
<text text-anchor="start" x="552.5" y="-129.5" font-family="Ubuntu" font-weight="bold" font-size="10.00">CategoryOneFields</text>
<text text-anchor="start" x="463.5" y="-113.5" font-family="Ubuntu" font-size="10.00">1</text>
<text text-anchor="start" x="474.5" y="-113.5" font-family="Ubuntu" font-size="10.00">ENV_OUTSIDE_TEMPERATURE</text>
<polygon fill="#a6cee3" stroke="transparent" points="620.5,-108.5 620.5,-123.5 648.5,-123.5 648.5,-108.5 620.5,-108.5"/>
<text text-anchor="start" x="622.5" y="-114.5" font-family="Ubuntu" font-style="italic" font-size="10.00">int32</text>
<text text-anchor="start" x="463.5" y="-98.5" font-family="Ubuntu" font-size="10.00">2</text>
<text text-anchor="start" x="474.5" y="-98.5" font-family="Ubuntu" font-size="10.00">ENGINE_RPM</text>
<polygon fill="#a6cee3" stroke="transparent" points="620.5,-93.5 620.5,-108.5 648.5,-108.5 648.5,-93.5 620.5,-93.5"/>
<text text-anchor="start" x="622.5" y="-99.5" font-family="Ubuntu" font-style="italic" font-size="10.00">int32</text>
<text text-anchor="start" x="463.5" y="-83.5" font-family="Ubuntu" font-size="10.00">3</text>
<text text-anchor="start" x="474.5" y="-83.5" font-family="Ubuntu" font-size="10.00">FUEL_LEVEL</text>
<polygon fill="#a6cee3" stroke="transparent" points="620.5,-78.5 620.5,-93.5 648.5,-93.5 648.5,-78.5 620.5,-78.5"/>
<text text-anchor="start" x="622.5" y="-84.5" font-family="Ubuntu" font-style="italic" font-size="10.00">int32</text>
<polygon fill="none" stroke="black" points="456,-77.5 456,-139.5 649,-139.5 649,-77.5 456,-77.5"/>
</a>
</g>
</g>
<!-- Node_Ja_103&#45;&gt;Node_Ja_101 -->
<g id="edge4" class="edge">
<title>Node_Ja_103:e&#45;&gt;Node_Ja_101:header</title>
<g id="a_edge4"><a xlink:title="Ja_103 &#45;&#45;&gt; Ja_101">
<path fill="none" stroke="#000000" d="M399,-127.5C420.81,-127.5 428.6,-130.4 446.24,-131.26"/>
<polygon fill="#000000" stroke="#000000" points="446.42,-134.77 456.5,-131.5 446.58,-127.77 446.42,-134.77"/>
</a>
</g>
</g>
<!-- Node_Ja_102 -->
<g id="node5" class="node">
<title>Node_Ja_102</title>
<g id="a_node5"><a xlink:title=".VehicleData.CategoryTwoFields">
<polygon fill="#fffaf0" stroke="transparent" points="481,-4 481,-51 624,-51 624,-4 481,-4"/>
<polygon fill="#e31a1c" stroke="transparent" points="482.5,-34.5 482.5,-49.5 623.5,-49.5 623.5,-34.5 482.5,-34.5"/>
<text text-anchor="start" x="529.5" y="-40.5" font-family="Ubuntu" font-weight="bold" font-size="10.00">CategoryTwoFields</text>
<text text-anchor="start" x="488.5" y="-24.5" font-family="Ubuntu" font-size="10.00">1</text>
<text text-anchor="start" x="499.5" y="-24.5" font-family="Ubuntu" font-size="10.00">IGNITION_STATE</text>
<polygon fill="#a6cee3" stroke="transparent" points="595.5,-19.5 595.5,-34.5 623.5,-34.5 623.5,-19.5 595.5,-19.5"/>
<text text-anchor="start" x="597.5" y="-25.5" font-family="Ubuntu" font-style="italic" font-size="10.00">int32</text>
<text text-anchor="start" x="488.5" y="-9.5" font-family="Ubuntu" font-size="10.00">2</text>
<text text-anchor="start" x="499.5" y="-9.5" font-family="Ubuntu" font-size="10.00">HEADLIGHTS_STATE</text>
<polygon fill="#a6cee3" stroke="transparent" points="595.5,-4.5 595.5,-19.5 623.5,-19.5 623.5,-4.5 595.5,-4.5"/>
<text text-anchor="start" x="597.5" y="-10.5" font-family="Ubuntu" font-style="italic" font-size="10.00">int32</text>
<polygon fill="none" stroke="black" points="481,-4 481,-51 624,-51 624,-4 481,-4"/>
</a>
</g>
</g>
<!-- Node_Ja_104&#45;&gt;Node_Ja_102 -->
<g id="edge1" class="edge">
<title>Node_Ja_104:e&#45;&gt;Node_Ja_102:header</title>
<g id="a_edge1"><a xlink:title="Ja_104 &#45;&#45;&gt; Ja_102">
<path fill="none" stroke="#000000" d="M404,-50.5C434.98,-50.5 444.84,-44.1 471.36,-42.75"/>
<polygon fill="#000000" stroke="#000000" points="471.59,-46.24 481.5,-42.5 471.42,-39.25 471.59,-46.24"/>
</a>
</g>
</g>
</g>
</svg>
